<?xml version="1.0" encoding="iso-8859-1"?>
<!-- Generator: Adobe Illustrator 19.0.0, SVG Export Plug-In . SVG Version: 6.00 Build 0)  -->
<svg version="1.1" id="Layer_1" xmlns="http://www.w3.org/2000/svg" xmlns:xlink="http://www.w3.org/1999/xlink" x="0px" y="0px"
	 viewBox="0 0 106.075 106.075" style="enable-background:new 0 0 106.075 106.075;" xml:space="preserve">
<g>
	<g>
		<g>
			<path d="M101.343,56.02c0.298-2.945,0.575-5.716,0.03-8.65c-0.84-4.526-0.426-9.474-2.129-13.848
				c-1.185-3.043-3.13-6.092-4.844-8.856c-1.124-1.812-1.871-3.929-3.652-5.2c-2.624-1.873-6.485-2.951-9.366-4.276
				c-1.659-0.763-3.627-1.035-5.182-1.983c-1.803-1.099-2.405-2.578-3.521-4.201c-1.378-2.005-2.508-4.672-4.573-6.059
				c-2.507-1.684-4.945-3.261-7.159-0.67c-0.574,0.672-0.892,2.532-1.393,3.32c-0.931,1.467-1.86,1.701-2.904,2.896
				c-0.144,0.164-0.256,0.327-0.37,0.489c0.099-0.255,0.195-0.525,0.284-0.823c1.081-3.623-1.557-7.942-5.512-8.152
				c-2.479-0.132-4.097,1.594-5.653,3.305c-1.037,1.141-1.996,2.345-2.932,3.569c-0.592,0.774-1.129,1.687-1.789,2.397
				c-1.341,1.441-2.585,1.722-4.385,2.586c-5.741,2.754-8.667,9.039-12.81,13.638c-3.838,4.26-8.885,6.792-11.904,11.825
				c-4.113,6.857-6.938,13.287-7.15,21.353c-0.188,7.225,0.299,13.79,2.393,20.44c-0.126,0.065-0.235,0.173-0.258,0.353
				c-0.379,3.074,2.668,7.63,5.338,8.975c2.042,1.029,4.264,0.568,6.264-0.472c1.888,5.18,5.082,8.28,10.167,10.908
				c2.659,1.374,5.258,2.883,8.208,3.597c3.555,0.861,7.162,0.536,10.638,1.816c5.89,2.169,12.769,2.033,18.984,1.275
				c4.927-0.601,8.101-2.949,11.164-6.207c5.344-3.482,11.139-6.063,15.349-11.225c4.482-5.497,7.674-14.383,8.548-21.263
				C101.68,63.277,100.978,59.633,101.343,56.02z M39.191,15.026c2.562-1.053,3.843-2.754,5.401-4.985
				c0.843-1.263,1.748-2.481,2.713-3.654c0.866-1.831,2.056-1.777,3.571,0.159c3.648,2.073,1.919,2.17,0.536,5.139
				c-0.78,1.673-1.379,3.084-0.869,4.854c0.458,1.588,1.879,1.723,1.441,3.515c-0.254,1.041-1.6,1.972-2.156,2.853
				c-1.43,2.265-1.141,3.934-1.6,6.401c-0.784,4.213-3.74,3.076-5.54,5.927c-1.296,2.053-0.568,4.123-0.406,6.28
				c0.207,0.5,0.427,0.994,0.661,1.483c-0.03,1.893-0.725,3.344-2.083,4.352c-0.196,0.433-0.547,0.819-0.747,1.268
				c-0.808,1.815-0.537,4.056-0.932,6.069c-0.137,0.472-0.282,0.937-0.436,1.392c-0.295,0.55-0.655,0.759-0.844,1.591
				c-0.044,0.194-0.018,0.376,0.034,0.548c-0.215,0.506-0.451,0.999-0.697,1.485c0.043-0.21,0.08-0.421,0.124-0.63
				c0.102-0.475-0.627-0.679-0.731-0.201c-0.213,0.983-0.41,1.965-0.606,2.946c-0.576,0.903-1.205,1.784-1.918,2.646
				c-0.161-0.072-0.316-0.153-0.457-0.254c-0.293-0.21-0.59,0.234-0.369,0.479c0.108,0.119,0.233,0.225,0.358,0.33
				c-0.148,0.169-0.277,0.342-0.43,0.51c-2.043,2.23-3.659,4.322-5.198,6.275c0.706-2.811,1.563-5.56,2.436-8.322
				c0.115-0.365,0.239-0.734,0.364-1.104c0.223-0.359,0.426-0.725,0.614-1.094c0.061-0.039,0.127-0.075,0.186-0.115
				c0.131-0.089,0.12-0.248,0.037-0.343c0.195-0.431,0.363-0.868,0.48-1.316c0.045-0.173-0.204-0.236-0.264-0.073
				c-0.034,0.092-0.125,0.263-0.25,0.481c0.2-0.675,0.37-1.355,0.488-2.039c1.204-0.212,2.226-0.786,3.074-1.726
				c0.203-0.225-0.049-0.509-0.308-0.399c-0.937,0.402-1.762,0.71-2.631,0.933c0.015-0.238,0.032-0.475,0.028-0.714
				c-0.005-0.347-0.542-0.348-0.539,0c0.002,0.283-0.013,0.564-0.039,0.845c-0.448,0.091-0.912,0.164-1.424,0.202
				c-0.113,0.008-0.22,0.014-0.33,0.021c0.301-0.456,0.6-0.914,0.903-1.369c0.282-0.424-0.401-0.819-0.681-0.398
				c-0.395,0.593-0.787,1.187-1.181,1.781c-0.317-0.016-0.634-0.055-0.971-0.147c-0.548-0.15-0.906-0.313-1.475-0.289
				c0.659-0.8,1.32-1.598,1.946-2.425c0.17-0.225,0.336-0.467,0.501-0.714c2.707-1.01,5.478-2.873,6.217-3.81
				c0.178-0.226-0.049-0.625-0.336-0.436c-0.656,0.433-2.746,1.769-4.951,2.809c0.56-0.861,1.153-1.696,1.867-2.293
				c0.387-0.323-0.168-0.871-0.552-0.552c-1.093,0.908-1.927,2.198-2.746,3.465c-0.16,0.062-0.316,0.116-0.474,0.172
				c-0.34-0.09-0.682-0.173-1.026-0.247c1.026-1.027,2.084-2.016,3.213-2.924c0.148-0.119,0.073-0.31-0.059-0.404
				c1.023-0.652,2.034-1.324,3.01-2.044c0.285-0.211,0.019-0.693-0.284-0.486c-2.9,1.98-5.907,3.705-9.023,5.298
				c-1.451-0.231-2.903-0.466-4.323-0.872c-0.42-0.12-0.849-0.295-1.274-0.503c1.543-0.823,3.089-1.641,4.635-2.466
				c1.537-0.82,3.136-1.606,4.75-2.363c2.63,0.085,5.758-0.416,7.691-1.815c0.64-0.463,0.095-1.446-0.627-1.073
				c-0.013,0.007-0.029,0.013-0.043,0.02c0.337-0.288,0.668-0.583,0.99-0.895c1.014-0.635,1.922-1.407,2.586-2.46
				c0.12-0.19-0.04-0.358-0.213-0.366c0.192-0.222,0.393-0.419,0.608-0.566c0.199-0.136,0.082-0.505-0.175-0.414
				c-1.174,0.415-2.07,1.74-2.952,2.584c-0.593,0.568-1.151,1.132-1.734,1.634c-1.015,0.491-2.076,0.917-3.113,1.346
				c-1.549,0.121-3.126,0.101-4.217,0.018c1.256-0.709,2.478-1.483,3.781-2.126c2.016-0.994,4.303-1.447,5.858-3.174
				c0.077-0.085-0.048-0.212-0.127-0.127c-1.797,1.938-5.014,2.499-7.334,3.737c-1.09,0.581-2.174,1.075-3.263,1.544
				c-1.51-0.227-2.924-0.672-4.247-1.357c0.396-0.158,0.792-0.311,1.186-0.478c4.014-1.7,8.015-3.44,11.968-5.281
				c0.741-0.282,1.459-0.606,2.105-0.99c1.271-0.608,2.538-1.223,3.794-1.861c0.332-0.169,0.04-0.665-0.292-0.499
				c-0.595,0.297-1.199,0.576-1.798,0.865c0.09-0.423-0.377-0.819-0.846-0.611c-4,1.771-8.226,2.752-12.498,3.477
				c0.156-0.131,0.316-0.251,0.473-0.379c0.23-0.131,0.448-0.275,0.674-0.41c0.117,0.082,0.304,0.019,0.366-0.13
				c0.017-0.042,0.034-0.083,0.052-0.124c0.603-0.371,1.189-0.761,1.78-1.146c0.058-0.018,0.116-0.039,0.174-0.057
				c0.127,0.139,0.349,0.195,0.531,0.028c0.1-0.091,0.178-0.199,0.272-0.294c4.395-1.421,8.674-3.176,13.06-4.625
				c0.432-0.143,0.247-0.83-0.189-0.686c-3.782,1.249-7.501,2.642-11.255,3.946c1.359-0.878,2.753-1.711,4.281-2.375
				c3.03-1.318,6.145-2.835,8.953-4.571c0.713-0.44,0.262-1.663-0.587-1.392c-3.708,1.184-7.278,2.656-10.55,4.583
				c0.414-0.569,0.83-1.137,1.242-1.707c0.383-0.143,0.767-0.286,1.149-0.431c0.138,0.2,0.432,0.308,0.668,0.097
				c0.294-0.264,0.613-0.497,0.942-0.718c1.111-0.433,2.22-0.871,3.326-1.318c0.187-0.076,0.219-0.279,0.154-0.42
				c0.926-0.388,1.847-0.77,2.689-1.228c2.39-1.303,4.482-3.134,7.155-3.859c0.287-0.078,0.242-0.573-0.073-0.537
				c-2.823,0.326-4.899,1.901-7.301,3.284c-2.346,1.351-5.193,2.183-7.261,3.98c-0.281,0.108-0.562,0.216-0.843,0.323
				c0.433-0.597,0.868-1.191,1.306-1.784c2.456-0.794,4.922-1.751,7.19-2.875c0.21-0.104,0.026-0.402-0.181-0.31
				c-2.095,0.923-4.271,1.758-6.482,2.465c0.985-1.319,1.949-2.684,2.947-4.012c1.378-0.457,2.754-0.914,4.159-1.173
				c0.164-0.03,0.094-0.277-0.068-0.249c-1.237,0.212-2.467,0.539-3.696,0.893c0.393-0.512,0.792-1.017,1.203-1.508
				c1.255-1.502,2.833-2.695,4.193-4.095c0.178-0.183-0.062-0.531-0.284-0.368c-1.393,1.024-2.941,1.934-4.175,3.158
				c-0.995,0.987-1.848,2.159-2.685,3.323c-1.154,0.338-2.31,0.666-3.474,0.911c-0.374,0.079-0.767,0.163-1.165,0.254
				c0.555-0.839,1.17-1.601,1.891-2.171c0.308-0.243-0.026-0.76-0.376-0.646c-0.555,0.179-1.083,0.49-1.585,0.881
				C34.838,17.587,36.356,16.191,39.191,15.026z M52.779,30.154c0.08,0.446,0.11,0.899,0.159,1.337
				c-0.438,0.038-0.873,0.06-1.294,0.014c0.071-0.665,0.094-1.383,0.201-2.197c0.136-1.033,0.336-1.989,0.644-2.913
				C52.369,27.673,52.523,28.725,52.779,30.154z M44.336,79.568c0.006,0.01,0.016,0.011,0.023,0.019
				c0.463,1.917,1.065,3.802,1.824,5.639c-0.972-0.647-2.104-1.174-3.199-1.614c0.015-0.644,0.019-1.294,0.047-1.93
				c0.05-1.125,0.116-2.252,0.183-3.379C43.649,78.669,44.037,79.08,44.336,79.568z M43.329,76.374
				c0.04-0.649,0.08-1.298,0.119-1.947c0.097,0.816,0.207,1.629,0.347,2.437C43.653,76.693,43.495,76.53,43.329,76.374z
				 M50.755,93.13c-0.006,0.111-0.009,0.221-0.013,0.331c-1.195-0.56-2.384-1.083-3.575-1.559c-0.11-1.448,0.116-1.199,0.207-2.51
				c0.033-0.475,0.053-0.951,0.071-1.426c0.264,0.511,0.54,1.017,0.832,1.518C49.004,90.73,49.855,91.947,50.755,93.13z
				 M50.177,87.333c0.371-3.081,0.555-5.992,1.524-8.994c-0.013,0.29-0.026,0.58-0.041,0.873c-0.145,2.831,0.039,5.68-0.227,8.501
				c-0.032,0.334-0.092,0.752-0.163,1.218C50.882,88.413,50.51,87.885,50.177,87.333z M46.98,80.499
				c-0.323-0.9-0.625-1.805-0.893-2.718c0.433-2.219,0.903-4.429,1.526-6.591C47.517,74.298,47.232,77.398,46.98,80.499z
				 M46.553,87.34c-0.093,1.074-0.35,2.62-0.424,4.161c-1.077-0.406-2.159-0.773-3.251-1.099c0.005-0.179,0.011-0.361,0.014-0.531
				c0.02-1.417,0.027-2.86,0.044-4.302C44.22,86.07,45.452,86.649,46.553,87.34z M42.703,75.854
				c-0.978-0.737-2.149-1.307-3.123-1.796c-0.241-0.121-0.477-0.212-0.716-0.323c0.218-2.058,0.418-4.115,0.595-6.18
				c1.385,0.506,2.975,1.134,3.649,2.269c0,0.015,0.001,0.03,0.002,0.045C43.007,71.865,42.86,73.86,42.703,75.854z M42.551,77.809
				c-0.142,1.829-0.273,3.66-0.364,5.493c-0.756-0.282-1.471-0.526-2.071-0.739c-0.697-0.248-1.381-0.46-2.06-0.654
				c0.022-0.899,0.06-1.799,0.176-2.703c0.139-1.088,0.266-2.173,0.39-3.257C39.924,76.48,41.36,77.017,42.551,77.809z
				 M26.069,80.415c0.006-0.032,0.014-0.064,0.02-0.096c1.639-2.241,3.114-4.569,4.684-6.849c0.707,0.148,1.409,0.315,2.107,0.494
				c-0.711,2.112-1.241,4.438-1.628,6.75c-1.697-0.125-3.422-0.139-5.23-0.088C26.036,80.556,26.055,80.487,26.069,80.415z
				 M25.834,75.199c-1.355,2.311-3.348,4.858-5.506,6.965c0.874-2.696,2.454-5.627,2.98-6.609c1.56-2.911,2.974-5.919,4.593-8.796
				c0.477-0.848,1.075-1.691,1.675-2.545c-0.472,1.441-0.948,2.879-1.368,4.337c-0.465,1.616-0.885,3.243-1.287,4.875
				C26.561,73.993,26.199,74.575,25.834,75.199z M31.908,71.867c0.832-1.145,1.711-2.266,2.666-3.348
				c-0.301,1.188-0.643,2.368-1.039,3.54C32.997,71.975,32.458,71.902,31.908,71.867z M31.971,82.332
				c1.49,0.275,2.951,0.611,4.33,1.056c0.275,0.089,0.569,0.179,0.858,0.268c-0.132,1.504-0.254,3.008-0.348,4.516
				c-0.014,0.218-0.031,0.527-0.044,0.888c-1.771-0.246-3.598-0.375-5.502-0.375C31.251,86.574,31.627,84.143,31.971,82.332z
				 M32.276,80.813c0.076-0.348,0.139-0.633,0.181-0.834c0.363-1.71,0.628-3.459,1.034-5.156c0.052-0.216,0.123-0.428,0.186-0.641
				c1.447,0.402,2.874,0.877,4.269,1.485c0.003,0.001,0.007,0.003,0.009,0.004c-0.219,2.015-0.432,4.03-0.624,6.046
				C35.627,81.273,33.957,80.983,32.276,80.813z M37.868,87.082c0.113-1.054,0.135-2.106,0.148-3.159
				c1.311,0.401,2.705,0.826,4.081,1.325c-0.068,1.625-0.124,3.259-0.134,4.888c-1.385-0.382-2.791-0.695-4.232-0.932
				C37.741,88.515,37.788,87.822,37.868,87.082z M38.2,73.435c-1.287-0.552-2.558-0.96-3.844-1.222
				c0.233-0.619,0.465-1.238,0.647-1.873c0.309-1.077,0.563-2.167,0.798-3.262c0.186-0.225,0.37-0.45,0.543-0.672
				c0.654,0.235,1.301,0.446,1.854,0.675c0.199,0.083,0.419,0.166,0.648,0.25C38.642,69.368,38.423,71.402,38.2,73.435z
				 M9.539,55.913c0.882-0.664,1.727-1.32,2.623-1.919c0.487,1.492,1.255,2.851,2.593,4.007c-0.045,0.032-0.089,0.065-0.134,0.096
				c-1.448,1.026-2.879,2.125-4.232,3.301c-0.683-1.6-1.074-3.348-1.396-5.097C9.175,56.177,9.358,56.05,9.539,55.913z
				 M9.431,54.827c0.25-0.571,0.516-1.138,0.817-1.694c0.369-0.681,0.793-1.365,1.24-2.048c0.122,0.716,0.261,1.415,0.438,2.093
				c-0.479,0.288-0.95,0.59-1.4,0.927C10.242,54.318,9.857,54.56,9.431,54.827z M14.146,49.236c0.41,0.753,0.944,1.42,1.572,2.009
				c-0.875,0.404-1.745,0.814-2.595,1.26c-0.293-0.801-0.581-1.613-0.973-2.402c0.014-0.02,0.031-0.04,0.046-0.061
				C12.842,49.762,13.497,49.503,14.146,49.236z M13.058,48.892c0.196-0.258,0.379-0.521,0.582-0.775
				c0.052,0.151,0.124,0.29,0.185,0.435C13.57,48.667,13.314,48.778,13.058,48.892z M19.92,42.795
				c0.883,0.807,1.806,1.457,2.846,1.952c-0.83,0.327-1.667,0.651-2.522,0.988c-1.758,0.691-3.493,1.485-5.227,2.276
				c-0.207-0.276-0.402-0.561-0.565-0.86c1.059-1.258,2.17-2.459,3.276-3.549C18.461,43.341,19.192,43.073,19.92,42.795z
				 M18.966,42.413c0.093-0.089,0.185-0.175,0.28-0.266c0.038,0.039,0.077,0.073,0.115,0.111
				C19.229,42.309,19.098,42.363,18.966,42.413z M19.81,41.597c0.977-0.96,2.005-2,3.075-3.011c2.316,0.117,4.488-0.149,6.911-0.724
				c-2.179,0.95-4.365,1.886-6.551,2.82c-0.974,0.416-1.953,0.814-2.934,1.203C20.146,41.786,19.974,41.704,19.81,41.597z
				 M25.186,54.443c0.768-0.017,1.519-0.094,2.241-0.224c-0.129,0.179-0.258,0.357-0.392,0.525
				c-1.397,1.755-2.816,3.483-4.188,5.259c-0.027,0.035-0.055,0.07-0.082,0.106c-0.722-0.181-1.457-0.406-2.188-0.672
				C22.138,57.806,23.641,56.101,25.186,54.443z M25,52.217c1.193-0.626,2.374-1.278,3.532-1.967
				c-0.838,0.673-1.642,1.402-2.428,2.161C25.737,52.342,25.369,52.278,25,52.217z M16.104,67.089
				c-0.349-0.07-0.553,0.277-0.476,0.531c-0.565-0.381-1.095-0.803-1.602-1.252c0.073-0.099,0.132-0.178,0.157-0.209
				c1.593-1.964,3.43-3.723,5.215-5.513c0.102,0.038,0.205,0.069,0.308,0.104c-0.104,0.138-0.133,0.333,0.019,0.496
				c0.394,0.423,0.856,0.76,1.36,1.033c-1.339,1.728-2.66,3.464-3.95,5.223C16.809,67.316,16.473,67.163,16.104,67.089z
				 M16.62,68.204c-0.006,0.008-0.013,0.017-0.019,0.026c-0.161-0.093-0.312-0.196-0.469-0.294
				C16.292,68.002,16.456,68.096,16.62,68.204z M20.675,61.059c0.385,0.107,0.769,0.191,1.152,0.262
				c-0.082,0.106-0.165,0.213-0.247,0.319C21.26,61.485,20.958,61.292,20.675,61.059z M19.756,59.122
				c-1.066-0.437-2.09-0.95-2.977-1.53c0.213-0.152,0.425-0.303,0.63-0.452c1.446-1.055,2.83-2.065,4.281-3.004
				c0.801,0.161,1.615,0.256,2.425,0.294C22.639,55.989,21.209,57.602,19.756,59.122z M16.045,57.062
				c-0.051-0.039-0.109-0.075-0.158-0.114c-1.318-1.054-1.957-2.352-2.485-3.712c0.081-0.045,0.155-0.095,0.238-0.138
				c0.875-0.459,1.742-0.928,2.613-1.39c1.217,0.978,2.702,1.696,4.298,2.149C19.002,54.847,17.523,55.97,16.045,57.062z
				 M15.532,48.632c2.625-1.17,5.169-2.418,7.895-3.378c0.097-0.034,0.191-0.076,0.287-0.113c0.702,0.25,1.455,0.443,2.297,0.56
				c0.172,0.024,0.362,0.036,0.543,0.054c-2.569,1.274-5.13,2.502-7.657,3.916c-0.413,0.231-0.834,0.447-1.258,0.658
				C16.876,49.879,16.149,49.305,15.532,48.632z M15.433,58.535c0.907,0.664,1.99,1.279,3.157,1.78
				c-1.742,1.73-3.591,3.507-5.226,5.438c-0.88-0.883-1.664-1.888-2.338-3.058c-0.12-0.209-0.23-0.423-0.336-0.639
				C12.207,60.774,13.868,59.621,15.433,58.535z M15.547,69.715c-0.349,0.5-0.691,1.007-1.032,1.515
				c-0.175-0.625-0.31-1.261-0.501-1.882c-0.056-0.182-0.127-0.358-0.196-0.534C14.361,69.166,14.938,69.466,15.547,69.715z
				 M16.367,70.007c0.825,0.258,1.698,0.432,2.631,0.481c0.42,0.022,0.555-0.343,0.455-0.651c0.138,0.046,0.276,0.09,0.417,0.123
				c0.317,0.075,0.648,0.111,0.982,0.137c-1.026,1.825-2.937,4.309-3.665,6.731c-0.583-1.614-1.644-2.975-2.312-4.54
				C15.355,71.519,15.854,70.759,16.367,70.007z M19.675,68.931c-0.698-0.186-1.28-0.603-1.861-0.999
				c0.41-0.575,0.822-1.149,1.232-1.716c0.881-1.217,1.798-2.421,2.726-3.618c0.988,0.387,2.104,0.549,3.248,0.534
				c-1.246,1.969-2.451,3.963-3.603,5.99C20.827,69.12,20.243,69.083,19.675,68.931z M22.295,61.92
				c0.126-0.161,0.254-0.321,0.381-0.482c0.629,0.069,1.247,0.099,1.822,0.039c0.511-0.054,0.745-0.903,0.134-0.99
				c-0.342-0.049-0.697-0.112-1.057-0.187c0.69-0.87,1.382-1.737,2.069-2.599c0.172-0.216,0.35-0.428,0.525-0.642
				c0.031,0.14,0.137,0.262,0.329,0.269c0.677,0.022,1.285,0.364,1.93,0.552c-0.933,1.409-1.858,2.821-2.769,4.243
				C24.481,62.263,23.328,62.238,22.295,61.92z M29.3,58.006c0.729,0.046,1.503,0.018,2.212-0.031
				c-0.206,1.011-0.53,2.007-0.865,2.992c-1.177,0.326-2.526,0.726-3.893,0.983C27.589,60.627,28.441,59.314,29.3,58.006z
				 M33.066,21.912c0.938-0.224,1.88-0.399,2.734-0.589c0.601-0.134,1.197-0.3,1.79-0.48c-0.282,0.391-0.563,0.78-0.85,1.155
				c-0.714,0.932-1.405,1.878-2.087,2.831c-1.03,0.289-2.065,0.548-3.103,0.758c-0.149,0.03-0.324,0.062-0.513,0.096
				C31.667,24.494,32.31,23.146,33.066,21.912z M30.706,26.299c0.021-0.038,0.042-0.08,0.064-0.118
				c1.138-0.204,2.27-0.318,2.961-0.515c0.139-0.039,0.279-0.087,0.418-0.128c-0.451,0.636-0.902,1.273-1.35,1.913
				c-1.098,0.402-2.202,0.791-3.309,1.167C29.874,27.843,30.271,27.07,30.706,26.299z M32.243,28.258
				c-0.476,0.712-0.933,1.482-1.395,2.258c-1.185,0.797-2.325,1.659-3.406,2.604c0.54-1.275,1.096-2.532,1.694-3.781
				c0.066-0.021,0.133-0.04,0.199-0.062C30.308,28.949,31.277,28.607,32.243,28.258z M24.264,29.997
				c1.754-1.588,3.457-3.448,5.025-5.342c-0.125,0.209-0.247,0.414-0.362,0.604c-0.23,0.382-0.464,0.777-0.698,1.179
				c-0.712,0.332-1.27,0.8-1.378,1.495c-0.031,0.194,0.221,0.264,0.294,0.081c0.124-0.312,0.349-0.568,0.635-0.787
				c-0.41,0.736-0.801,1.497-1.141,2.277c-0.794,0.192-1.647,0.376-2.495,0.595C24.184,30.064,24.225,30.032,24.264,29.997z
				 M22.508,31.561c0.034-0.074,0.073-0.143,0.11-0.214c1.216-0.483,2.489-0.847,3.764-1.198c-0.531,1.364-0.884,2.773-0.844,4.19
				c-0.574,0.275-1.13,0.593-1.677,0.927c-0.961,0.282-1.921,0.564-2.881,0.842C21.394,34.511,21.904,32.913,22.508,31.561z
				 M20.768,36.982c0.361-0.11,0.722-0.22,1.084-0.329c-0.375,0.295-0.737,0.6-1.085,0.914c-0.049,0.007-0.097,0.014-0.146,0.021
				C20.666,37.388,20.72,37.184,20.768,36.982z M17.136,35.37c1.084-0.965,2.249-1.781,3.422-2.585
				c-0.372,1.168-0.621,2.384-0.74,3.655c-1.098,0.315-2.196,0.63-3.3,0.934c-0.05,0.014-0.102,0.03-0.153,0.044
				C16.656,36.743,16.937,36.066,17.136,35.37z M15.383,39.876c0.175-0.548,0.398-1.087,0.628-1.624
				c1.221-0.431,2.557-0.666,3.757-0.984c-0.01,0.202-0.028,0.401-0.031,0.606c-0.02,0.067-0.019,0.132,0.003,0.199
				c-0.001,0.153,0.005,0.309,0.008,0.463c-1.827,1.831-3.617,3.609-5.314,5.467c-0.112,0.037-0.223,0.084-0.334,0.126
				C14.485,42.709,14.927,41.304,15.383,39.876z M12.891,40.225c0.123,0.035,0.274,0.008,0.357-0.106
				c0.246-0.337,0.54-0.611,0.854-0.858c-0.067,0.249-0.134,0.497-0.206,0.744c-0.465,1.604-0.857,3.117-1.06,4.676
				c-1.119,0.559-2.235,1.232-3.357,1.681C10.395,44.225,11.515,42.168,12.891,40.225z M9.15,47.111
				c1.232-0.232,2.443-1.029,3.608-1.649c-0.014,0.166-0.04,0.329-0.049,0.497c-1.273,1.529-2.467,3.143-3.519,4.939
				c-0.021,0.036-0.039,0.071-0.059,0.107c-0.651,0.502-1.239,1.08-1.724,1.759C7.85,50.834,8.415,48.942,9.15,47.111z
				 M8.936,62.738c-0.219,0.213-0.447,0.418-0.658,0.637c-0.348,0.36-0.794,0.801-1.215,1.287c0.16-1.761,0.416-3.505,0.821-5.208
				C8.131,60.583,8.485,61.687,8.936,62.738z M8.242,52.684c0.002-0.002,0.004-0.003,0.006-0.005
				c-0.001,0.002-0.002,0.004-0.003,0.006C8.244,52.684,8.243,52.684,8.242,52.684z M6.662,56.806
				c0.166-1.255,0.402-2.494,0.674-3.723c0.06,0.081,0.166,0.127,0.261,0.069c-0.057,0.436-0.106,0.875-0.131,1.322
				C7.162,55.249,6.888,56.026,6.662,56.806z M17.348,84.691c-1.529,1.074-2.359,1.504-4.118,0.849
				c-2.016-0.75-0.942-0.748-2.122-1.831c-0.795-0.73-1.685-1.482-2.422-2.324c-0.771-2.978-1.398-6.051-1.827-9.157
				c-0.044-2.01-0.033-4.031,0.087-6.036c0.627-1.006,1.407-1.935,2.283-2.804c0.726,1.512,1.675,2.882,2.83,4.011
				c-1.208,1.645-2.217,3.411-2.848,5.363c-0.075,0.234,0.124,0.44,0.345,0.453c0.147,0.009,0.294,0.017,0.44,0.026
				c0.261,0.016,0.376-0.386,0.136-0.502c-0.333-0.161,1.246-2.591,2.533-4.456c0.156,0.432,0.315,0.865,0.438,1.315
				c0.246,0.899,0.39,1.815,0.685,2.699c-0.86,1.298-4.19,5.86-2.773,7.364c1.373,1.457,2.874-1.203,3.63-2.04
				c0.184-0.204-0.092-0.471-0.298-0.298c-0.391,0.326-2.07,2.4-2.617,1.053c-0.2-0.492,1.432-3.132,1.671-3.575
				c0.263-0.488,0.553-0.967,0.837-1.447c0.669,1.378,1.625,2.609,2.596,3.782c0.07,0.085,0.179,0.082,0.264,0.036
				c-0.252,0.997-0.294,1.977,0.036,2.889c0.1,0.276,0.43,0.472,0.709,0.288c0.417-0.274,0.494-0.333,0.866-0.664
				c0.234-0.208-0.016-0.57-0.293-0.503c-1.475,0.359,0.756-4.05,1.18-4.796c0.803-1.411,1.56-2.847,2.332-4.274
				c0.903-0.039,1.811-0.181,2.642-0.369c0.262-0.059,0.274-0.492,0-0.542c-0.685-0.126-1.388-0.117-2.092-0.098
				c0.111-0.2,0.216-0.404,0.33-0.604c1.042-1.833,2.135-3.637,3.249-5.427c1.514-0.153,3.018-0.579,4.274-1.178
				c-0.025,0.076-0.052,0.152-0.076,0.228c-3.095,4.909-9.668,15.176-11.145,21.164C18.526,83.795,17.936,84.277,17.348,84.691z
				 M56.133,102.174c-4.23,0.069-6.822-1.363-10.752-2.229c-3.117-0.687-6.336-0.304-9.434-1.241
				c-6.869-2.078-12.502-5.659-16.556-11.45c0.002-0.001,0.003-0.002,0.005-0.003c0.249,0.271,0.574,0.471,1.007,0.569
				c0.377,0.086,0.662-0.473,0.277-0.657c-0.222-0.106-0.387-0.265-0.526-0.447c0.863-0.641,1.646-1.341,2.293-2.007
				c0.946-0.973,1.795-1.998,2.608-3.041c-0.515,2.046-1.405,4.162-0.253,6.152c0.656,1.133,1.586,1.389,2.372,0.257
				c0.115-0.165-0.113-0.39-0.278-0.278c-2.049,1.391-1.839-3.01-1.727-3.51c0.212-0.949,0.448-1.883,0.665-2.826
				c1.709,0.202,3.463,0.417,5.192,0.704c-0.152,1.05-0.278,2.084-0.382,3.08c-0.059,0.562-0.165,1.942-0.126,3.44
				c-0.501,0.009-1.007,0.026-1.519,0.053c-0.304,0.016-0.299,0.443,0,0.469c0.515,0.044,1.031,0.101,1.547,0.158
				c0.15,2.656,0.83,5.347,3.069,4.307c0.226-0.105,0.088-0.413-0.116-0.429c-1.507-0.121-2.092-1.725-2.212-3.792
				c1.829,0.225,3.657,0.533,5.47,0.922c0.035,1.548,0.263,3.32,1.102,3.841c1.067,0.663,1.441-0.457,1.279-1.279
				c-0.032-0.162-0.284-0.122-0.284,0.038c0.002,0.818-0.421,0.348-0.586,0.154c-0.141-0.166-0.252-0.965-0.297-1.189
				c-0.093-0.458-0.152-0.899-0.192-1.333c1.415,0.329,2.816,0.709,4.198,1.137c0.004,0.274,0.003,0.549,0.011,0.822
				c0.048,1.599,0.099,3.49,1.244,4.714c0.339,0.363,0.859-0.305,0.636-0.305h0.013c-0.947-1.394-1.065-3.238-1.042-4.964
				c0.65,0.213,1.295,0.436,1.934,0.67c0.467,0.171,0.92,0.367,1.374,0.56c0.133,1.675,0.671,3.112,2.137,3.602
				c0.281,0.094,0.514-0.151,0.535-0.408c0.05-0.587,0.054-0.447-0.084-1.025c-0.069-0.287-0.457-0.195-0.483,0.065
				c-0.443-0.393-0.698-0.869-0.766-1.428c-0.011-0.078-0.028-0.156-0.04-0.234c1.123,0.519,2.236,1.058,3.359,1.579
				c0.153,1.261,0.559,2.333,1.424,2.914c0.236,0.159,0.588,0.046,0.724-0.19c0.34-0.589,0.396-1.17,0.34-1.78
				c0.046,0.011,0.089,0.022,0.137,0.034c0.389,0.433,0.78,0.86,1.171,1.272c1.383,1.457,3.848,3.763,6.208,4.501
				C59.267,102.167,57.702,102.148,56.133,102.174z M52.657,75.913c0.342-0.717,0.716-1.408,1.108-2.085
				c0.046-0.032,0.09-0.071,0.127-0.125c0.444-0.633,1.276-1.146,1.987-1.677c0.998,5.118-0.157,10.715-0.325,15.861
				c-0.051,1.57-0.253,3.651-0.001,5.54c-1.196-1.043-2.327-2.141-3.34-3.319c0.163-1.934,0.372-3.855,0.318-5.814
				C52.456,81.601,52.709,78.728,52.657,75.913z M52.262,96.046c0.094,0.04,0.249,0.087,0.439,0.138
				c-0.08,0.288-0.193,0.551-0.34,0.563c-0.053,0.005-0.114-0.348-0.165-0.731C52.218,96.025,52.24,96.036,52.262,96.046z
				 M56.466,86.77c0.002,0.192,0.001,0.388,0.005,0.576c0.06,2.766,0.229,5.282,0.864,7.574c-0.149-0.12-0.295-0.243-0.442-0.363
				C56.153,92.22,56.303,89.279,56.466,86.77z M61.55,98.199c-0.863-3.01-1.804-5.93-1.99-9.224
				c-0.17-3.007-0.036-5.958,0.584-8.778c0.335,3.07,0.473,6.187,0.334,9.232c-0.067,1.462-0.196,2.889-0.036,4.347
				c0.162,1.481,0.819,2.737,1.058,4.142c0.078,0.459,0.699,0.444,0.916,0.12c0.128-0.191,0.212-0.379,0.279-0.568
				c0.084,0.681,0.223,1.351,0.437,1.999C62.611,99.045,62.094,98.621,61.55,98.199z M74.256,97.311
				c-3.011,3.373-6.674,4.392-10.598,4.704c0.611-0.44,0.911-1.368,0.234-1.937c-0.097-0.082-0.205-0.162-0.303-0.243
				c0.074-0.001,0.149-0.016,0.223-0.054c0.093-0.049,0.186-0.097,0.28-0.146c0.116-0.061,0.11-0.207,0.038-0.295
				c-0.774-0.942-0.021-4.233,0.473-6.171c0.313,0.535,0.769,0.982,1.445,1.274c0.092,0.04,0.174,0.021,0.234-0.061
				c0.362-0.493,0.276-0.29,0.328-0.909c0.011-0.126-0.199-0.156-0.223-0.03c-1.049,0.097-1.507-0.479-1.376-1.728
				c-0.003-0.029,0-0.059-0.003-0.088c0.652-2.541,1.621-5.057,2.799-7.41c4.225-1.236,7.961-4.535,12.259-5.491
				c0.261-0.058,0.237-0.434,0-0.505c-1.897-0.564-4.401,1.005-6.056,1.797c-1.877,0.899-3.636,1.958-5.48,2.814
				c2.544-4.544,6.355-7.954,9.412-12.098c0.303-0.41-0.296-0.998-0.706-0.706c-4.731,3.381-8.677,8.479-11.168,13.76
				c-0.447,0.138-0.904,0.252-1.372,0.346c-0.128-0.878-0.257-1.756-0.301-2.661c-0.025-0.51-0.813-0.515-0.797,0
				c0.03,0.951,0.208,1.875,0.345,2.808c-0.231,0.034-0.156,0.37,0.05,0.389c0.034,0.268,0.068,0.536,0.086,0.807
				c0.07,1.053,0.018,2.108-0.027,3.163c-0.71,2.019-1.271,4.158-1.415,6.252c-0.064-0.138-0.3-0.083-0.308,0.08
				c0.006,0.403-0.047,0.795-0.147,1.177c-0.205-0.659-0.456-1.319-0.567-1.996c-0.323-1.964-0.095-3.856-0.085-5.829
				c0.017-3.458-0.273-6.919-0.784-10.34c0.642-1.979,1.56-3.88,2.828-5.674c0.4-0.567-0.368-1.229-0.914-0.914
				c-3.782,2.184-5.365,6.453-5.929,10.737c0.233-3.541,0.505-7.123-0.263-10.588c0.002-0.002,0.004-0.003,0.005-0.005
				c0.557-0.52,1.044-1.114,1.601-1.636c1.302-1.22,2.733-2.293,4.137-3.392c1.664-1.302,2.788-2.502,4.76-3.393
				c1.492-0.674,2.812-1.472,4.135-2.457c0.182-0.135,0.086-0.488-0.169-0.4c-1.858,0.647-3.818,1.446-5.59,2.276
				c-1.41,0.66-2.425,1.949-3.615,2.921c-1.699,1.388-3.48,2.679-5.021,4.252c-0.233,0.238-0.493,0.467-0.761,0.694
				c1.385-2.007,2.842-3.968,4.132-6.089c0.415-0.682-0.506-1.324-1.068-0.824c-1.379,1.229-2.646,2.572-3.795,3.999
				c0.575-1.019,0.991-2.102,1.504-3.163c0.746-1.544,1.823-2.781,3.004-4.005c1.907-1.977,3.476-5.489,6.31-6.195
				c0.184-0.046,0.13-0.301-0.043-0.315c-2.891-0.233-4.57,3.079-6.177,4.992c-1.037,1.235-2.249,2.294-3.112,3.673
				c-1.05,1.678-1.442,3.646-2.535,5.306c-0.2,0.304,0.114,0.589,0.397,0.544c-0.844,1.122-1.615,2.291-2.296,3.505
				c-0.127-0.657-0.283-1.306-0.495-1.937c-0.12-0.357-0.648-0.214-0.565,0.156c0.221,0.989,0.356,1.967,0.441,2.943
				c-1.824,3.614-2.891,7.556-2.96,11.605c-0.379-0.773-0.718-1.554-1.04-2.339c0.293-4.43,0.721-8.84,0.693-13.287
				c0-0.024-0.01-0.042-0.014-0.064c0.616-1.733,1.371-3.421,2.336-5.041c2.543-4.265,6.229-7.882,9.972-11.167
				c0.015,0.027,0.024,0.054,0.046,0.08c1.086,1.227,3.415-0.368,4.394-0.996c1.704-1.093,3.54-2.431,4.551-4.23
				c0.092-0.163-0.117-0.312-0.252-0.194c-0.97,0.847-6.973,5.991-8.08,4.807c-0.008-0.008-0.016-0.01-0.024-0.017
				c0.339-0.294,0.678-0.589,1.016-0.878c0.331-0.283-0.024-0.809-0.41-0.705c-1.299,0.351-2.536,0.941-3.71,1.689
				c0.668-1.075,1.242-2.239,1.748-3.203c1.071-2.043,2.672-3.766,3.286-6.021c0.065-0.24-0.271-0.381-0.4-0.169
				c-1.117,1.849-2.649,3.36-3.636,5.3c-0.843,1.658-1.708,3.84-2.835,5.433c-3.081,2.537-5.624,6.086-7.468,9.218
				c-1.851,3.144-3.376,6.897-3.864,10.663c-0.759-3.736-1.157-7.576-1.391-11.503c-0.009-0.152-0.22-0.149-0.234,0
				c-0.181,1.899-0.285,3.811-0.3,5.721c-0.644-0.625-1.489-1.049-2.303-1.379c-0.386-0.156-0.786-0.295-1.184-0.435
				c0.065-0.802,0.132-1.602,0.193-2.407c0.028-0.372-0.547-0.368-0.578,0c-0.063,0.733-0.133,1.465-0.202,2.198
				c-0.511-0.171-1.025-0.334-1.532-0.491c-0.063-0.02-0.131-0.033-0.196-0.05c1.486-2.181,2.332-4.263,2.807-6.794
				c0.876-1.81,1.98-2.309,2.214-4.614c0.204-2.013-0.57-3.499,0.781-5.226c0.687-0.879,1.991-1.144,2.659-2.153
				c1.211-1.831,0.386-2.971-0.168-4.88c-1.417-4.878,1.533-4.314,4.365-6.655c0.2-0.165,0.36-0.329,0.515-0.493
				c0.378,0.308,0.812,0.426,1.733,0.666c1.574,0.411,0.454-1.124,3.866,0.189c1.083,0.417,2.114,1.491,3.098,2.1
				c0.481,0.298,1.213,0.323,1.692,0c2.527-1.706,2.774,0.452,4.78,1.455c2.872,1.437,3.167-1.236,5.76,1.897
				c1.093,1.321,0.899,1.507,2.474,2.113c0.599,0.23,1.285-0.408,1.765-0.237c2.171,0.771,1.205,1.573,2.02,2.928
				c1.279,2.126,2.466,3.882,3.943,5.763c2.412,3.073,1.813,5.032,1.617,8.523c-0.156,2.789-0.343,5.559,0.371,8.289
				c1.194,4.562,2.442,7.512,1.172,12.473C83.069,87.017,78.666,92.37,74.256,97.311z M64.772,84.684
				c0.301-0.002,0.599-0.019,0.893-0.048c-0.238,0.538-0.48,1.096-0.718,1.673C64.905,85.763,64.847,85.221,64.772,84.684z
				 M96.865,69.642c-1.81,6.989-4.25,13.574-9.523,18.605c-1.048,0.999-2.171,1.908-3.317,2.786
				c2.108-3.142,3.792-6.509,4.674-10.404c1.204-5.317-0.423-9.878-1.373-14.742c2.491-2.537,5.003-5.058,7.504-7.584
				c0.425-0.429-0.233-1.088-0.663-0.663c-2.419,2.391-4.793,4.765-7.018,7.296c-0.29-1.684-0.476-3.41-0.41-5.225
				c0.021-0.583,0.091-1.215,0.171-1.867c1.468-1.182,2.742-2.494,4.373-3.513c0.865-0.54,1.778-0.882,2.745-1.19
				c1.066-0.339,1.534-0.625,2.601,0.201c0.519,0.402,1.263-0.296,0.74-0.74c-2.054-1.744-2.822-1.084-5.22-0.057
				c-2.25,0.963-3.624,2.866-5.157,4.63c0.249-1.976,0.501-4.094-0.153-5.788c-0.83-2.152-2.92-2.488-4.295-4.15
				c-1.773-2.142-1.473-5.648-3.427-7.491c-1.644-1.551-3.043,0.108-4.382-0.467c-0.697-0.299-0.997-1.864-1.489-2.441
				c-0.89-1.044-1.624-1.288-2.844-1.657c-1.5-0.454-2.652,0.359-4.278-0.783c-0.674-0.474-0.999-1.23-1.796-1.593
				c-2.014-0.919-3.407,0.837-5.019,0.557c-1.037-0.18-2.016-1.308-3.149-1.778c-0.086-0.316-0.01-0.681-0.048-1.301
				c-0.098-1.617-0.462-2.752-0.169-4.432c0.256-1.471,0.519-3.472-0.361-4.78c0.084-0.173,0.159-0.346,0.21-0.523
				c0.458-1.578-0.158-2.04-0.723-3.367c-1.744-4.093-0.62-4.742,0.554-6.819c-0.297,1.126-0.101,2.292,0.149,3.671
				c0.04,0.222,0.415,0.226,0.452,0c0.618-3.744,3.823-4.143,5.618-6.754c0.665-0.967,0.528-2.682,1.521-3.185
				c3.272-1.657,6.902,6.896,8.472,9.149c2.56,3.675,7.412,4.923,11.361,6.685c2.581,1.152,4.509,1.685,6.397,3.905
				c1.821,2.141,3.163,4.596,4.515,7.042c1.555,2.813,2.449,5.257,2.866,8.146c-2.421-4.002-6.063-7.45-9.575-9.999
				c-2.331-1.693-4.805-2.979-7.37-3.906c0,0,0,0,0-0.001c0.521-2.367-1.065-4.402-2.556-6.077c-1.006-1.13-2.283-3.28-3.975-3.316
				c-0.286-0.006-0.323,0.399-0.065,0.483c1.207,0.394,2.19,2.69,2.91,3.705c0.98,1.383,2.236,3.097,2.556,4.818
				c-1.559-0.493-3.147-0.862-4.759-1.093c-1.24-1.833-2.992-3.336-4.831-4.548c-2.233-1.471-5.039-3.285-7.862-2.812
				c-0.238,0.04-0.153,0.371,0.053,0.391c2.533,0.256,4.98,2.523,6.922,3.939c1.223,0.892,2.31,1.809,3.317,2.792
				c-3.884-0.249-7.862,0.208-11.804,1.333c-0.256,0.073-0.219,0.519,0.065,0.483c4.435-0.549,9.194-0.53,13.732,0.346
				c0.53,0.641,1.042,1.317,1.545,2.038c0.168,0.241,0.529,0.094,0.471-0.199c-0.103-0.52-0.257-1.016-0.438-1.499
				c3.042,0.733,5.952,1.877,8.559,3.527c-1.315-0.411-3.027-0.327-4.048-0.249c-2.954,0.227-7.275,0.283-9.546,2.565
				c-0.266,0.267,0.069,0.644,0.384,0.497c2.131-0.995,4.975-0.736,7.248-1.175c2.109-0.408,5.735-1.291,7.452,0.543
				c0.116,0.123,0.348,0.031,0.34-0.141c-0.019-0.433-0.153-0.784-0.36-1.076c1.592,1.079,3.201,2.266,4.678,3.577
				c-0.829-0.147-1.693-0.164-2.339-0.155c-1.832,0.027-3.48,0.349-5.25,0.805c-1.106,0.284-2.37,0.429-3.4,0.938
				c-0.702,0.347-1.1,1.07-1.806,1.436c-0.463,0.24-0.272,1.09,0.278,1.026c2.702-0.312,5.34-1.562,8.064-1.987
				c1.726-0.269,5.497-0.857,6.811,0.56c0.071,0.077,0.167,0.058,0.232,0c0.385,0.456,0.753,0.922,1.087,1.403
				c1.133,1.633,2.587,3.695,3.733,5.861c0.106,0.816,0.236,1.627,0.367,2.438c-1.318-2.144-4.987-2.862-7.106-3.186
				c-2.98-0.456-6.637,0.027-8.428,2.72c-0.188,0.283,0.208,0.518,0.436,0.336c3.856-3.08,11.955-2.5,15.135,1.472
				c0.053,0.067,0.117,0.076,0.179,0.066c0.166,1.136,0.299,2.273,0.312,3.423c0.033,2.867-0.639,5.652-0.602,8.525
				C97.763,63.204,97.769,66.15,96.865,69.642z"/>
			<path d="M76.887,58.784c-2.378,1.404-5.011,2.355-7.412,3.726c-2.556,1.459-4.754,3.191-7.534,4.26
				c-0.258,0.099-0.155,0.444,0.112,0.407c2.854-0.393,5.124-2.262,7.563-3.646c2.599-1.475,5.257-2.415,7.536-4.403
				C77.342,58.962,77.098,58.659,76.887,58.784z"/>
			<path d="M75.238,64.401c-0.531,2.096-2.001,3.889-3.026,5.77c-1.004,1.842-2.379,3.388-3.643,5.051
				c-0.338,0.444,0.427,1.041,0.779,0.601c2.594-3.234,6.134-6.993,6.419-11.351C75.787,64.168,75.312,64.109,75.238,64.401z"/>
			<path d="M60.829,42.304c-1.193,1.142-2.609,1.893-4.017,2.681c0.007-0.254-0.287-0.452-0.546-0.245
				c-0.867,0.694-1.7,1.416-2.517,2.154c-1.45,0.971-2.868,1.986-4.118,3.21c-0.279,0.274-0.141,0.633,0.115,0.795
				c-0.653,0.912-1.09,1.873-1.736,2.91c-1.172,1.881-3.715,4.854-3.26,7.231c0.05,0.26,0.43,0.23,0.497,0
				c0.782-2.688,2.943-4.989,4.315-7.378c1.375-2.395,3.392-4.305,5.295-6.328c0.578-0.385,1.159-0.761,1.735-1.129
				c1.641-1.05,3.349-2.018,4.575-3.565C61.352,42.406,61.057,42.087,60.829,42.304z"/>
			<path d="M70.413,86.23c-0.288-0.548-1.118-0.062-0.83,0.485c0.798,1.518,0.678,3.21,0.92,4.858
				c0.195,1.33,0.578,2.627,0.791,3.955c0.041,0.257,0.388,0.157,0.414-0.056c0.222-1.758-0.369-3.439-0.469-5.19
				C71.158,88.85,71.092,87.523,70.413,86.23z"/>
		</g>
	</g>
</g>
<g>
</g>
<g>
</g>
<g>
</g>
<g>
</g>
<g>
</g>
<g>
</g>
<g>
</g>
<g>
</g>
<g>
</g>
<g>
</g>
<g>
</g>
<g>
</g>
<g>
</g>
<g>
</g>
<g>
</g>
</svg>
